<svg width="16" height="17" viewBox="0 0 16 17" fill="none" xmlns="http://www.w3.org/2000/svg">
<path d="M4.66666 7.83301L7.38666 14.733C7.43789 14.8533 7.52335 14.9558 7.6324 15.0279C7.74145 15.1 7.86928 15.1384 8 15.1384C8.13071 15.1384 8.25855 15.1 8.3676 15.0279C8.47665 14.9558 8.5621 14.8533 8.61333 14.733L11.3333 7.83301" stroke="#323232" stroke-width="1.6" stroke-linecap="round" stroke-linejoin="round"/>
<path d="M11.3333 5.16634C11.3333 4.28229 10.9821 3.43444 10.357 2.80932C9.7319 2.1842 8.88405 1.83301 8 1.83301C7.11594 1.83301 6.2681 2.1842 5.64297 2.80932C5.01785 3.43444 4.66666 4.28229 4.66666 5.16634" stroke="#323232" stroke-width="1.6" stroke-linecap="round" stroke-linejoin="round"/>
<path d="M11.3333 5.16699C11.687 5.16699 12.0261 5.30747 12.2761 5.55752C12.5262 5.80756 12.6667 6.1467 12.6667 6.50033C12.6667 6.85395 12.5262 7.19309 12.2761 7.44313C12.0261 7.69318 11.687 7.83366 11.3333 7.83366H4.66667C4.31305 7.83366 3.97391 7.69318 3.72386 7.44313C3.47381 7.19309 3.33334 6.85395 3.33334 6.50033C3.33334 6.1467 3.47381 5.80756 3.72386 5.55752C3.97391 5.30747 4.31305 5.16699 4.66667 5.16699" stroke="#323232" stroke-width="1.6" stroke-linecap="round" stroke-linejoin="round"/>
</svg>
