<svg width="16" height="17" viewBox="0 0 16 17" fill="none" xmlns="http://www.w3.org/2000/svg">
<path d="M4.33334 8.5C4.96 6.19333 7.62667 4.5 10 4.5C12.3733 4.5 14.04 6.19333 14.6667 8.5C14.04 10.8133 12.3733 12.5 10 12.5C7.62667 12.5 4.96 10.8133 4.33334 8.5Z" stroke="#323232" stroke-width="1.6" stroke-linecap="round" stroke-linejoin="round"/>
<path d="M12 8.5V8.83333" stroke="#323232" stroke-width="1.6" stroke-linecap="round" stroke-linejoin="round"/>
<path d="M10.6667 12.4535C9.79947 11.3181 9.32969 9.92896 9.32969 8.50021C9.32969 7.07146 9.79947 5.68235 10.6667 4.54688" stroke="#323232" stroke-width="1.6" stroke-linecap="round" stroke-linejoin="round"/>
<path d="M4.66667 7.61366C4.66667 5.83366 3.72 4.48033 1.82 4.16699C1.15333 5.16699 1.15333 7.50033 1.97333 8.50033C1.14667 9.50033 1.14667 11.8337 1.82 12.8337C3.72 12.5203 4.66667 11.167 4.66667 9.38699" stroke="#323232" stroke-width="1.6" stroke-linecap="round" stroke-linejoin="round"/>
<path d="M6.97334 5.34001C6.8 4.42001 6.11334 3.32668 5.33334 2.50001H9.2C9.51633 2.49884 9.82278 2.61017 10.0646 2.81412C10.3064 3.01807 10.4678 3.30135 10.52 3.61334L10.6733 4.54668" stroke="#323232" stroke-width="1.6" stroke-linecap="round" stroke-linejoin="round"/>
<path d="M10.6733 12.4533L10.52 13.3867C10.4678 13.6987 10.3064 13.982 10.0646 14.1859C9.82278 14.3899 9.51633 14.5012 9.2 14.5H6.33334C6.97924 13.7677 7.33285 12.8231 7.32667 11.8467" stroke="#323232" stroke-width="1.6" stroke-linecap="round" stroke-linejoin="round"/>
</svg>
