<svg width="16" height="17" viewBox="0 0 16 17" fill="none" xmlns="http://www.w3.org/2000/svg">
<path d="M14.6667 3.83301V1.83301L10.74 5.75967" stroke="#323232" stroke-width="1.6" stroke-linecap="round" stroke-linejoin="round"/>
<path d="M11.0667 13.0937C12.1712 13.0937 13.0667 12.1983 13.0667 11.0937C13.0667 9.98918 12.1712 9.09375 11.0667 9.09375C9.9621 9.09375 9.06667 9.98918 9.06667 11.0937C9.06667 12.1983 9.9621 13.0937 11.0667 13.0937Z" stroke="#323232" stroke-width="1.6" stroke-linecap="round" stroke-linejoin="round"/>
<path d="M5.40667 7.43359C6.51124 7.43359 7.40667 6.53816 7.40667 5.43359C7.40667 4.32902 6.51124 3.43359 5.40667 3.43359C4.3021 3.43359 3.40667 4.32902 3.40667 5.43359C3.40667 6.53816 4.3021 7.43359 5.40667 7.43359Z" stroke="#323232" stroke-width="1.6" stroke-linecap="round" stroke-linejoin="round"/>
<path d="M8.23334 10.2666C9.33791 10.2666 10.2333 9.37117 10.2333 8.2666C10.2333 7.16203 9.33791 6.2666 8.23334 6.2666C7.12877 6.2666 6.23334 7.16203 6.23334 8.2666C6.23334 9.37117 7.12877 10.2666 8.23334 10.2666Z" stroke="#323232" stroke-width="1.6" stroke-linecap="round" stroke-linejoin="round"/>
<path d="M9.27333 6.40039C10.3779 6.40039 11.2733 5.50496 11.2733 4.40039C11.2733 3.29582 10.3779 2.40039 9.27333 2.40039C8.16876 2.40039 7.27333 3.29582 7.27333 4.40039C7.27333 5.50496 8.16876 6.40039 9.27333 6.40039Z" stroke="#323232" stroke-width="1.6" stroke-linecap="round" stroke-linejoin="round"/>
<path d="M12.1 9.22656C13.2046 9.22656 14.1 8.33113 14.1 7.22656C14.1 6.12199 13.2046 5.22656 12.1 5.22656C10.9954 5.22656 10.1 6.12199 10.1 7.22656C10.1 8.33113 10.9954 9.22656 12.1 9.22656Z" stroke="#323232" stroke-width="1.6" stroke-linecap="round" stroke-linejoin="round"/>
<path d="M4.37334 11.2998C5.47791 11.2998 6.37334 10.4044 6.37334 9.2998C6.37334 8.19524 5.47791 7.2998 4.37334 7.2998C3.26877 7.2998 2.37334 8.19524 2.37334 9.2998C2.37334 10.4044 3.26877 11.2998 4.37334 11.2998Z" stroke="#323232" stroke-width="1.6" stroke-linecap="round" stroke-linejoin="round"/>
<path d="M7.2 14.127C8.30457 14.127 9.2 13.2315 9.2 12.127C9.2 11.0224 8.30457 10.127 7.2 10.127C6.09543 10.127 5.2 11.0224 5.2 12.127C5.2 13.2315 6.09543 14.127 7.2 14.127Z" stroke="#323232" stroke-width="1.6" stroke-linecap="round" stroke-linejoin="round"/>
<path d="M3.33334 15.167C4.43791 15.167 5.33334 14.2716 5.33334 13.167C5.33334 12.0624 4.43791 11.167 3.33334 11.167C2.22877 11.167 1.33334 12.0624 1.33334 13.167C1.33334 14.2716 2.22877 15.167 3.33334 15.167Z" stroke="#323232" stroke-width="1.6" stroke-linecap="round" stroke-linejoin="round"/>
</svg>
