<svg width="16" height="17" viewBox="0 0 16 17" fill="none" xmlns="http://www.w3.org/2000/svg">
<path d="M2 7.83301V9.83301C2 10.0098 2.07024 10.1794 2.19526 10.3044C2.32029 10.4294 2.48986 10.4997 2.66667 10.4997H13.3333C13.5101 10.4997 13.6797 10.4294 13.8047 10.3044C13.9298 10.1794 14 10.0098 14 9.83301V7.83301" stroke="#323232" stroke-width="1.6" stroke-linecap="round" stroke-linejoin="round"/>
<path d="M8 13.1667H2.66667C2.48986 13.1667 2.32029 13.0964 2.19526 12.9714C2.07024 12.8464 2 12.6768 2 12.5V11.1667C2 10.9899 2.07024 10.8203 2.19526 10.6953C2.32029 10.5702 2.48986 10.5 2.66667 10.5H13.3333C13.5101 10.5 13.6797 10.5702 13.8047 10.6953C13.9298 10.8203 14 10.9899 14 11.1667V12.5C14 12.6768 13.9298 12.8464 13.8047 12.9714C13.6797 13.0964 13.5101 13.1667 13.3333 13.1667H10.78" stroke="#323232" stroke-width="1.6" stroke-linecap="round" stroke-linejoin="round"/>
<path d="M2 7.83304L7.18 3.80638C7.41428 3.62365 7.70289 3.52441 8 3.52441C8.29711 3.52441 8.58572 3.62365 8.82 3.80638L14 7.83304H2Z" stroke="#323232" stroke-width="1.6" stroke-linecap="round" stroke-linejoin="round"/>
<path d="M8.64666 13.68L4.66666 10.5H13L10.5 13.5C10.2756 13.7659 9.95621 13.9335 9.60996 13.9671C9.2637 14.0007 8.91801 13.8977 8.64666 13.68Z" stroke="#323232" stroke-width="1.6" stroke-linecap="round" stroke-linejoin="round"/>
</svg>
