<svg width="16" height="17" viewBox="0 0 16 17" fill="none" xmlns="http://www.w3.org/2000/svg">
<path d="M4 5.83301L5.16667 14.0197C5.21195 14.34 5.37218 14.633 5.61749 14.844C5.86281 15.055 6.17646 15.1695 6.5 15.1663H9.52667C9.8502 15.1695 10.1639 15.055 10.4092 14.844C10.6545 14.633 10.8147 14.34 10.86 14.0197L12 5.83301" stroke="#323232" stroke-width="1.6" stroke-linecap="round" stroke-linejoin="round"/>
<path d="M3.33334 5.83301H12.6667" stroke="#323232" stroke-width="1.6" stroke-linecap="round" stroke-linejoin="round"/>
<path d="M4.66666 10.5C5.19449 10.2789 5.76105 10.165 6.33333 10.165C6.90561 10.165 7.47217 10.2789 8 10.5C8.52783 10.7212 9.09439 10.8351 9.66666 10.8351C10.2389 10.8351 10.8055 10.7212 11.3333 10.5" stroke="#323232" stroke-width="1.6" stroke-linecap="round" stroke-linejoin="round"/>
<path d="M8 5.83301L8.66667 1.83301H10" stroke="#323232" stroke-width="1.6" stroke-linecap="round" stroke-linejoin="round"/>
</svg>
